<svg xmlns="http://www.w3.org/2000/svg" xmlns:xlink="http://www.w3.org/1999/xlink" xmlns:lucid="lucid" width="1520" height="760"><g transform="translate(-280 -260)" lucid:page-tab-id="w-uMUxCK7cDO"><path d="M820 400c0-22.1 17.9-40 40-40h880c22.1 0 40 17.9 40 40v560c0 22.1-17.9 40-40 40H860c-22.1 0-40-17.9-40-40z" stroke="#000" stroke-width="2" fill="#fff"/><path d="M1260 500c0-11.05 8.95-20 20-20h360c11.05 0 20 8.95 20 20v340c0 11.05-8.95 20-20 20h-360c-11.05 0-20-8.95-20-20z" stroke="#ef8d22" stroke-width="6" fill="#fff"/><path d="M1340 600c0-11.05 8.95-20 20-20h240c11.05 0 20 8.95 20 20v160c0 11.05-8.95 20-20 20h-240c-11.05 0-20-8.95-20-20z" stroke="#ef8d22" stroke-width="6" fill="#fff"/><path d="M946.27 348.4l-15.73-.98-49.54 3.2 13.97 31.63 51.3-33.86z" fill="#fbbf93"/><path d="M894.78 297.87l-13.78 7v35.12h13.78l19.5-17.74-19.5-24.4z" fill="#9d5025"/><path d="M946.27 348.38l-51.3 4.3v29.57l51.3-14V348.4zM919.78 340h-25v-42.13l25 6.78V340z" fill="#f58536"/><path d="M955.72 339.95l17.94.04v-34.56l-17.94 2.97v31.55z" fill="#9d5025"/><path d="M920.57 311.9l16.14-16.25L973.66 317l-17.94 2.53-35.13-7.62z" fill="#6b3a19"/><path d="M904.06 340h26.38l13.83-27.72L930.44 280l-26.38 13.2V340z" fill="#9d5025"/><path d="M930.44 280v60h14.82v-31.56l28.4 8.58V340h6.33v-35.16L930.43 280z" fill="#f58536"/><path d="M881 350.6l13.98 2.06v29.6l-13.98-7V350.6z" fill="#9d5025"/><path d="M980 350.48L956.14 349l-52.1 5.05L930.42 400l49.6-49.52z" fill="#fbbf93"/><path d="M980 350.48l-49.56 7.42V400L980 375.12v-24.65z" fill="#f58536"/><path d="M904.06 354.05l26.38 3.86V400l-26.38-13.2v-32.75z" fill="#9d5025"/><use xlink:href="#a" transform="matrix(1,0,0,1,881,400) translate(16.525 14.4)"/><use xlink:href="#b" transform="matrix(1,0,0,1,881,400) translate(31.025 36)"/><path d="M1420 652.1h120v61.4h-120v-61.4z" fill="#9d5025"/><path d="M1420 646.5h120v61.4h-120v-61.4z" fill="#f58536"/><path d="M1445.92 650.17h5.65v54.08h-5.65v-54.08zM1456.34 650.17h5.65v54.08h-5.66v-54.08zM1466.75 650.17h5.65v54.08h-5.65v-54.08zM1425.1 650.17h5.64v54.08h-5.65v-54.08zM1435.5 650.17h5.66v54.08h-5.66v-54.08zM1477.17 650.17h5.65v54.08h-5.65v-54.08zM1487.58 650.17h5.66v54.08h-5.66v-54.08zM1498 650.17h5.65v54.08H1498v-54.08zM1508.4 650.17h5.66v54.08h-5.66v-54.08zM1518.82 650.17h5.65v54.08h-5.65v-54.08zM1529.24 650.17h5.65v54.08h-5.66v-54.08z" fill="#fbbf93"/><path d="M1426.56 651.63h4.2v52.62h-4.2v-52.62zM1436.98 651.63h4.2v52.62h-4.2v-52.62zM1447.4 651.63h4.18v52.62h-4.18v-52.62zM1457.8 651.63h4.2v52.62h-4.2v-52.62zM1468.22 651.63h4.18v52.62h-4.18v-52.62zM1478.63 651.63h4.2v52.62h-4.2v-52.62zM1489.05 651.63h4.2v52.62h-4.2v-52.62zM1499.46 651.63h4.2v52.62h-4.2v-52.62zM1509.88 651.63h4.2v52.62h-4.2v-52.62zM1520.3 651.63h4.18v52.62h-4.18v-52.62zM1530.7 651.63h4.2v52.62h-4.2v-52.62z" fill="#fff"/><use xlink:href="#c" transform="matrix(1,0,0,1,1420,713.5) translate(24.549999999999997 14.4)"/><use xlink:href="#d" transform="matrix(1,0,0,1,1420,713.5) translate(23.049999999999997 36)"/><path d="M1180 462c0-16.57 13.43-30 30-30h440c16.57 0 30 13.43 30 30v428c0 16.57-13.43 30-30 30h-440c-16.57 0-30-13.43-30-30z" stroke="#474747" fill-opacity="0"/><path d="M1241.97 420.24v-5.9c0-7.25-5.88-13.13-13.12-13.13-7.24 0-13.12 5.9-13.12 13.14v5.9h6.64v-5.9c0-3.58 2.9-6.5 6.48-6.5 3.57 0 6.48 2.92 6.48 6.5v5.9h6.64z" fill="#876a22"/><path d="M1241.98 420.26h5.42v20.83H1210v-20.84h5.72v-7.1c0-7.28 5.87-13.16 13.13-13.16 7.26 0 13.13 5.88 13.13 13.15v7.1zm-6.66 0v-7.1c0-3.6-2.88-6.5-6.47-6.5-3.6 0-6.47 2.9-6.47 6.5v7.1h12.94z" fill="#daa835"/><path d="M1210 441.1h37.4v.9H1210z" fill="#876a22"/><use xlink:href="#e" transform="matrix(1,0,0,1,1180,890) translate(143.1 12.799999999999999)"/><use xlink:href="#f" transform="matrix(1,0,0,1,1180,890) translate(185.05 12.799999999999999)"/><use xlink:href="#g" transform="matrix(1,0,0,1,1180,890) translate(310.95000000000005 12.799999999999999)"/><path d="M666.4 307.48l-6.4 3.2v90.63l6.4 3.2 25.33-46.66-25.32-50.36zM685.97 323.83l9.43-13.4 42.4 18.85-9.9 1.58-41.93-7.03zM678.62 389.1l10.42 14.33 48.77-21.05-9.4-1.46-49.78 8.2z" fill="#9d5025"/><path d="M681.38 401l-14.96 3.5V307.5l14.96 3.4V401z" fill="#f58536"/><path d="M673.5 303.92l7.9-3.92 14.8 62.27L681.4 412l-7.9-3.92V303.92zM727.86 380.83l9.95 1.53 9.12-25.37-9.1-27.7-9.96 1.58v49.95z" fill="#9d5025"/><path d="M696.7 407.63L681.38 412V300l15.32 4.37v103.26z" fill="#f58536"/><path d="M748.25 380.42l-66.87 12.44V412l66.87-18.9v-12.68zM748.37 331.28l-67-12.73V300l67 19v12.28z" fill="#f58536"/><path d="M737.82 316l10.74 2.97v74.12l-10.74 2.95V316z" fill="#f58536"/><path d="M780 346.2l-28.78 1.36-10.16-.7 29.08-23.43L780 346.2z" fill="#6b3a19"/><path d="M741.06 346.86l29.08-1.64v-21.8l-29.08 4.72v18.72z" fill="#9d5025"/><path d="M713.7 345.02l29.47-29.7 14.98 28.7-30.54 1.94-13.9-.94z" fill="#6b3a19"/><path d="M713.7 345.04l29.46-2.5v-27.2l-29.46 6.88v22.82zM741.06 365.5l38.93.7-9.86 22.74-29.08-4.7V365.5z" fill="#9d5025"/><path d="M713.7 367.35l44.45 1-14.98 28.7-29.47-6.9v-22.8z" fill="#9d5025"/><path d="M713.7 367.34l29.47 2.5 14.98-1.48-30.54-1.96-13.9.94zM780 366.18l-28.78-1.34-10.16.67 29.08 1.67 9.85-1z" fill="#fbbf93"/><path d="M770.15 345.2l9.84 1v-19.83l-9.85-2.94v21.78zM758.14 344.03l-14.98-1.5v-27.2l14.98 4.5v24.2zM770.15 367.16l9.84-.98V386l-9.85 2.94v-21.78zM758.14 368.36l-14.98 1.5v27.18l14.98-4.48v-24.2z" fill="#f58536"/><use xlink:href="#h" transform="matrix(1,0,0,1,660,412) translate(6.049999999999997 14.4)"/><use xlink:href="#i" transform="matrix(1,0,0,1,660,412) translate(77 14.4)"/><use xlink:href="#j" transform="matrix(1,0,0,1,660,412) translate(41.525 36)"/><path d="M1386.4 511.98l-6.4 3.2v90.63l6.4 3.2 25.33-46.66-25.32-50.36zM1405.97 528.33l9.43-13.4 42.4 18.85-9.9 1.58-41.93-7.03zM1398.62 593.6l10.42 14.33 48.77-21.05-9.4-1.46-49.78 8.2z" fill="#9d5025"/><path d="M1401.38 605.5l-14.96 3.5V512l14.96 3.4v90.13z" fill="#f58536"/><path d="M1393.5 508.42l7.9-3.92 14.8 62.27-14.8 49.73-7.9-3.92V508.42zM1447.86 585.33l9.95 1.53 9.12-25.37-9.1-27.7-9.96 1.58v49.95z" fill="#9d5025"/><path d="M1416.7 612.13l-15.32 4.37v-112l15.32 4.37v103.26z" fill="#f58536"/><path d="M1468.25 584.92l-66.87 12.44v19.13l66.87-18.9v-12.68zM1468.37 535.78l-67-12.73V504.5l67 19v12.28z" fill="#f58536"/><path d="M1457.82 520.5l10.74 2.97v74.12l-10.74 2.95V520.5z" fill="#f58536"/><path d="M1500 550.7l-28.78 1.36-10.16-.7 29.08-23.43 9.85 22.77z" fill="#6b3a19"/><path d="M1461.06 551.36l29.08-1.64v-21.8l-29.08 4.72v18.72z" fill="#9d5025"/><path d="M1433.7 549.52l29.47-29.7 14.98 28.7-30.54 1.94-13.9-.94z" fill="#6b3a19"/><path d="M1433.7 549.54l29.46-2.5v-27.2l-29.46 6.88v22.82zM1461.06 570l38.93.7-9.86 22.74-29.08-4.7V570z" fill="#9d5025"/><path d="M1433.7 571.85l44.45 1-14.98 28.7-29.47-6.9v-22.8z" fill="#9d5025"/><path d="M1433.7 571.84l29.47 2.5 14.98-1.48-30.54-1.96-13.9.94zM1500 570.68l-28.78-1.34-10.16.67 29.08 1.67 9.85-1z" fill="#fbbf93"/><path d="M1490.15 549.7l9.84 1v-19.83l-9.85-2.94v21.78zM1478.14 548.53l-14.98-1.5v-27.2l14.98 4.5v24.2zM1490.15 571.66l9.84-.98v19.82l-9.85 2.94v-21.78zM1478.14 572.86l-14.98 1.5v27.18l14.98-4.48v-24.2z" fill="#f58536"/><use xlink:href="#k" transform="matrix(1,0,0,1,1380,616.5) translate(9.074999999999996 14.4)"/><use xlink:href="#l" transform="matrix(1,0,0,1,1380,616.5) translate(51.025 14.4)"/><path d="M1460 642.1h120v61.4h-120v-61.4z" fill="#9d5025"/><path d="M1460 636.5h120v61.4h-120v-61.4z" fill="#f58536"/><path d="M1485.92 640.17h5.65v54.08h-5.65v-54.08zM1496.34 640.17h5.65v54.08h-5.66v-54.08zM1506.75 640.17h5.65v54.08h-5.65v-54.08zM1465.1 640.17h5.64v54.08h-5.65v-54.08zM1475.5 640.17h5.66v54.08h-5.66v-54.08zM1517.17 640.17h5.65v54.08h-5.65v-54.08zM1527.58 640.17h5.66v54.08h-5.66v-54.08zM1538 640.17h5.65v54.08H1538v-54.08zM1548.4 640.17h5.66v54.08h-5.66v-54.08zM1558.82 640.17h5.65v54.08h-5.65v-54.08zM1569.24 640.17h5.65v54.08h-5.66v-54.08z" fill="#fbbf93"/><path d="M1466.56 641.63h4.2v52.62h-4.2v-52.62zM1476.98 641.63h4.2v52.62h-4.2v-52.62zM1487.4 641.63h4.18v52.62h-4.18v-52.62zM1497.8 641.63h4.2v52.62h-4.2v-52.62zM1508.22 641.63h4.18v52.62h-4.18v-52.62zM1518.63 641.63h4.2v52.62h-4.2v-52.62zM1529.05 641.63h4.2v52.62h-4.2v-52.62zM1539.46 641.63h4.2v52.62h-4.2v-52.62zM1549.88 641.63h4.2v52.62h-4.2v-52.62zM1560.3 641.63h4.18v52.62h-4.18v-52.62zM1570.7 641.63h4.2v52.62h-4.2v-52.62z" fill="#fff"/><path d="M1320 820h180v40h-180z" stroke="#000" stroke-opacity="0" stroke-width="2" fill="#fff" fill-opacity="0"/><use xlink:href="#k" transform="matrix(1,0,0,1,1325,825) translate(35.599999999999994 18.15)"/><use xlink:href="#m" transform="matrix(1,0,0,1,1325,825) translate(77.55 18.15)"/><path d="M561.18 669.72c11.06 0 18.8 6.98 18.8 16.92v21.58h-9.72v-14.64h-2.67v14.64H552.6c-1-10.94-9.84-18.38-22.24-18.38h-8.62v-5.97c9.5-.85 17.12-4.5 17.94-14.2h.87zM499.34 669.7h.93c.88 9.68 8.44 13.34 17.93 14.2v5.93h-8.44c-12.4 0-21.3 7.48-22.23 18.4h-14.67v-14.66h-2.68v14.65H460V686.6c0-10 7.74-16.94 18.86-16.94z" fill="#7d7c7c"/><path d="M530.3 698.93c11.06 0 18.8 6.98 18.8 16.93v21.63h-9.78v-14.7h-2.62v14.65h-33.07V722.8h-2.56v14.65h-10.2v-21.6c0-9.94 7.75-16.92 18.8-16.92zM489.06 627.56l16.32 11.6v5c.1 9.14-7.18 16.6-16.28 16.7h-.04c-8.94 0-16.32-7.47-16.32-17.42v-4.4zM550.86 627.56l16.32 11.6v5c.1 9.14-7.18 16.6-16.28 16.7h-.04c-8.94 0-16.32-7.47-16.32-17.42v-4.4zM520 650.34l14.4 10.2v4.5c.14 8.07-6.28 14.72-14.35 14.87H520c-8.17-.2-14.63-6.94-14.42-15.1 0-.12 0-.2.02-.33v-4.02z" fill="#7d7c7c"/><path d="M550.88 622.5c9.18-.17 16.76 7.16 16.93 16.35.17 9.2-7.14 16.78-16.32 16.94-9.18.16-16.76-7.17-16.92-16.35v-.34c-.07-9.08 7.2-16.53 16.32-16.6zM519.96 645.2c8.14-.2 14.9 6.25 15.1 14.4.18 8.15-6.25 14.9-14.4 15.12-8.13.18-14.9-6.26-15.1-14.4v-.36c-.08-8.07 6.35-14.65 14.4-14.77zM561.18 664.58c11.06 0 18.8 6.98 18.8 16.94v21.64h-9.72V688.5h-2.67v14.66H552.6c-1-10.96-9.84-18.36-22.24-18.36h-8.62v-1.9c9.73-.96 17.12-8.52 17.94-18.24h.87zM499.34 664.6h.93c.82 9.75 8.2 17.3 17.93 18.27v1.85h-8.44c-12.4 0-21.3 7.48-22.23 18.4h-14.67V688.5h-2.68v14.65H460v-21.63c0-10 7.74-16.93 18.86-16.93z" fill="#d2d3d3"/><path d="M530.3 693.87c11.06 0 18.8 6.98 18.8 16.93v21.63h-9.78v-14.65h-2.62v14.65h-33.07v-14.65h-2.56v14.65h-10.2V710.8c0-9.95 7.75-16.93 18.8-16.93zM489.07 622.5c9.18-.17 16.76 7.16 16.93 16.35.16 9.2-7.15 16.78-16.33 16.94-9.18.16-16.76-7.17-16.93-16.35v-.34c-.06-9.08 7.22-16.5 16.33-16.6z" fill="#d2d3d3"/><use xlink:href="#n" transform="matrix(1,0,0,1,460,737.5) translate(38.025 14.4)"/><path d="M581 690h737.5" stroke="#000" stroke-width="2" fill="none"/><path d="M581.02 691H580v-2H581z"/><path d="M1333.76 690l-14.26 4.64v-9.28z" stroke="#000" stroke-width="2"/><path d="M875 682.36c0 31.8-25.76 57.63-57.5 57.63S760 714.16 760 682.35c0-31.8 25.76-57.63 57.5-57.63s57.5 25.82 57.5 57.63z" fill="#9d5025"/><path d="M760 677.62h115v4.73H760v-4.73z" fill="#9d5025"/><path d="M875 677.63c0 31.8-25.76 57.63-57.5 57.63S760 709.44 760 677.63c0-31.8 25.76-57.63 57.5-57.63s57.5 25.82 57.5 57.63z" fill="#f58536"/><path d="M774.14 683.36v-1.5c.44-7 4.34-12.8 10.66-15.86.6-12.86 11.52-22.8 24.43-22.12 8.05.38 14.8 4.5 18.88 11.47 6.6-2.77 14.13.28 16.9 6.82.43.95.7 1.72.86 2.67 8.67 1.72 14.9 10.03 14.9 17.02v1.4c0 8.53-8.83 16-18.88 16h-48.94c-9.96.07-18.8-7.42-18.8-15.9z" fill="#fff"/><path d="M829.27 661.48l-3.67 2.54-1.87-4.06c-2.85-6.34-8.7-10.23-15.66-10.27H808c-9.52 0-17.3 7.77-17.3 17.38v3.23l-2.7.8c-4.57 1.83-7.57 5.85-7.94 10.8v1.4c0 4.66 5.7 10.08 12.96 10.08h49c7.33 0 12.95-5.42 12.95-10.1v-1.4c0-4.7-5.25-10.87-11.3-11.35l-3.3-.26-.24-3.28c0-1.4-.44-2.54-1.2-3.68-2.17-3.2-6.5-3.98-9.66-1.8z" fill="#f58536"/><use xlink:href="#o" transform="matrix(1,0,0,1,760,740) translate(27.025 14.4)"/><use xlink:href="#p" transform="matrix(1,0,0,1,760,740) translate(24.025 36)"/><path d="M1095 682.36c0 31.8-25.76 57.63-57.5 57.63S980 714.16 980 682.35c0-31.8 25.76-57.63 57.5-57.63s57.5 25.82 57.5 57.63z" fill="#9d5025"/><path d="M1095 677.63c0 31.8-25.76 57.63-57.5 57.63S980 709.44 980 677.63c0-31.8 25.76-57.63 57.5-57.63s57.5 25.82 57.5 57.63z" fill="#f58536"/><path d="M1054.27 631.08V652h-33.56v-20.92h33.57zM1080.22 691.64v17.04h-17v-17.04h17zM1058.73 691.64v17.04h-17v-17.04h17zM1032.56 691.64v17.04h-17v-17.04h17zM1011.05 691.64v17.04h-17v-17.04h17z" fill="#fff"/><path d="M1001.02 676.9h3.06v16.7h-3.06v-16.7z" fill="#fff"/><path d="M1001.02 676.9h24.57v3.05H1001v-3.06z" fill="#fff"/><path d="M1022.53 676.9h3.06v16.7h-3.07v-16.7zM1048.7 676.9h3.06v16.7h-3.06v-16.7z" fill="#fff"/><path d="M1048.7 676.9h24.57v3.05h-24.57v-3.06z" fill="#fff"/><path d="M1070.2 676.9h3.07v16.7h-3.06v-16.7zM1011.8 664.95h3.06v13.47h-3.06v-13.47zM1035.96 648.92h3.06v16.28h-3.06v-16.28z" fill="#fff"/><path d="M1011.8 663.67h50.77v3.06h-50.77v-3.06z" fill="#fff"/><path d="M1059.5 664.95h3.07v13.47h-3.06v-13.47z" fill="#fff"/><use xlink:href="#q" transform="matrix(1,0,0,1,980,740) translate(13.574999999999996 14.4)"/><use xlink:href="#r" transform="matrix(1,0,0,1,980,740) translate(37.5 36)"/><use xlink:href="#s" transform="matrix(1,0,0,1,980,740) translate(22.049999999999997 57.6)"/><path d="M1401.52 688.6l-.04 2-3-.07.06-2zm-6.92-.24l-.13 2-5.96-.4.14-1.98zm-9.94-.63l-.12 2-5.96-.4.12-1.98zm-9.93-.64l-.13 2-5.96-.4.13-2zm-9.9-.76l-.2 2-5.94-.64.2-2zm-9.9-1.05l-.2 1.98-5.94-.63.2-2zm-9.9-1.06l-.2 2-5.94-.64.2-2zm-13.8-1.46l3.9.4-.2 2-3.95-.42-2.03-.3.3-1.98zm-5.92-.88l-.28 1.98-5.9-.88.28-1.98zm-9.84-1.47l-.3 1.98-5.9-.87.3-1.97zm-9.85-1.46l-.28 1.98-5.9-.88.28-1.98zm-9.84-1.46l-.3 2-5.9-.9.3-1.97zm-11.16-1.65l1.3.2-.28 1.97-1.35-.2-4.57-.87.38-1.97zm-8.44-1.62l-.37 1.97-5.88-1.13.38-1.96zm-9.77-1.87l-.4 1.96-5.86-1.12.38-1.97zm-9.8-1.88l-.37 1.97-5.87-1.13.38-1.96zm-9.77-1.87l-.38 1.97-5.87-1.12.38-1.96zm-9.78-1.86l-.38 1.96-5.87-1.12.38-1.97zm-12.18-2.34l2.4.46-.38 1.97-2.44-.47-3.45-.8.47-1.96zm-7.27-1.7l-.46 1.94-5.82-1.37.46-1.95zm-9.7-2.3l-.45 1.96-5.82-1.37.46-1.96zm-9.7-2.27l-.45 1.94-5.8-1.36.45-1.94zm-9.68-2.28l-.46 1.94-5.8-1.38.44-1.94zm-9.7-2.3l-.45 1.96-5.82-1.36.46-1.94zm-9.7-2.27l-.44 1.95-5.82-1.37.46-1.95zm-9.68-2.28l-.46 1.95-5.8-1.37.45-1.95zm-10.23-2.4l.55.12-.46 1.95-.6-.14-5.2-1.46.53-1.93zm-9-2.53l-.54 1.93-5.76-1.6.54-1.94zm-9.6-2.68l-.53 1.9-5.76-1.6.55-1.92zm-9.58-2.7l-.54 1.93-5.75-1.6.53-1.94zm-9.6-2.68l-.53 1.93-5.76-1.6.54-1.94zm-9.58-2.68l-.54 1.92-5.75-1.6.54-1.93zm-9.6-2.7l-.53 1.94-5.74-1.6.54-1.94zm-9.58-2.67l-.54 1.93-5.75-1.6.54-1.94zm-9.6-2.68l-.53 1.9-5.75-1.6.54-1.92zm-9.58-2.7l-.53 1.93-5.76-1.6.53-1.94zm-9.5-2.8l-.62 1.9-5.68-1.85.6-1.9zm-9.47-3.08l-.6 1.9-5.7-1.85.63-1.9zm-9.46-3.08l-.62 1.9-5.68-1.84.62-1.9zm-9.47-3.08l-.62 1.9-5.68-1.84.62-1.9zm-9.47-3.08l-.62 1.9-5.68-1.84.62-1.9zm-9.47-3.08l-.62 1.9-5.67-1.84.62-1.9zm-9.47-3.07l-.62 1.9-5.68-1.85.62-1.9zm-9.47-3.08l-.63 1.9-5.68-1.85.6-1.9zm-9.48-3.08l-.62 1.9-5.68-1.85.62-1.9zm-9.47-3.08l-.62 1.9-5.68-1.85.62-1.9zm-13.96-4.55l4.48 1.46-.62 1.9-4.53-1.46-1.17-.44.7-1.87zm-4.88-1.8l-.7 1.87-5.6-2.08.7-1.88zm-9.33-3.47l-.7 1.87-5.6-2.08.7-1.87zm-9.34-3.47l-.7 1.88-5.6-2.08.7-1.87zm-9.34-3.46l-.7 1.88-5.6-2.08.7-1.88zm-9.33-3.47l-.7 1.88-5.6-2.08.7-1.88zm-9.35-3.46l-.7 1.88-5.6-2.08.7-1.87zm-9.33-3.46l-.7 1.87-5.6-2.07.7-1.87zm-9.33-3.47l-.7 1.88-5.6-2.08.68-1.88zm-9.35-3.46l-.7 1.88-5.6-2.08.7-1.87zm-9.33-3.46l-.7 1.87-5.6-2.07.7-1.87zm-9.85-3.66l.5.2-.68 1.87-.57-.2-5-2.1.77-1.85zm-8.64-3.62l-.77 1.84-5.5-2.3.76-1.85zm-9.18-3.85l-.78 1.85-5.5-2.3.77-1.85zm-9.2-3.84l-.76 1.84-5.52-2.3.78-1.85zm-9.17-3.85l-.77 1.85-5.5-2.3.05-.13h4.84zM765 512.2l-.6 1.32h-1.27l-4.38-2.05.85-1.8zm-9-4.23l-.85 1.8-5.4-2.53.84-1.8zm-9.02-4.23l-.85 1.8-5.4-2.53.84-1.8zm-9-4.23l-.86 1.82-5.4-2.53.84-1.83zm-9.03-4.22l-.85 1.8-5.4-2.52.85-1.8zm-12.43-5.83l3.42 1.6-.85 1.82-3.47-1.63-1.95-1 .93-1.8zm-5.44-2.84l-.93 1.8-5.3-2.77.93-1.78zm-8.83-4.6l-.93 1.8-5.3-2.77.93-1.78zm-8.83-4.6l-.93 1.78-5.3-2.76.92-1.77zm-8.83-4.6l-.94 1.78-5.3-2.76.93-1.77zm-8.8-4.6l-1 1.73-5.17-2.98 1-1.73zm-8.62-4.97l-1 1.73-5.18-2.98 1-1.73zm-8.63-4.97l-1 1.73-5.17-3 1-1.72zm-8.92-5.13l.3.16-1 1.73-.33-.2-4.77-3 1.07-1.7zm-8.1-5.13l-1.06 1.7-5.05-3.2 1.07-1.7zm-10.28-6.5l1.87 1.18-1.07 1.7-1.9-1.22-3.1-2.14 1.15-1.64zm-6.33-4.4l-1.14 1.65-4.9-3.4 1.13-1.65zm-8.1-5.7l-1.2 1.58-4.77-3.6 1.2-1.6zm-7.9-6l-1.26 1.53-4.6-3.8 1.26-1.55zm-11.45-9.84l3.86 3.47-1.34 1.48-3.9-3.48-.56-.55 1.4-1.43zm-6.8-6.9l2.97 3.15.45.45-1.4 1.43-.5-.47-3-3.2-.65-.74 1.5-1.3zm-5.64-7.05l1.47 2.04 1.03 1.3-1.57 1.24-1.05-1.33-1.52-2.1-.98-1.47 1.67-1.1zm-4.9-9.36l.35 1 .43 1.08.53 1.18.66 1.3-1.8.9-.68-1.35-.56-1.26-.46-1.17-.37-1.07-.24-.8 1.9-.57zm-.33-9.98l-.16.53-.13.52-.1.54-.1.56-.07.57-.05.57-.03.6v.64l.03.66.03.33-2 .16-.02-.37-.03-.75v-.7l.03-.7.06-.67.08-.65.1-.64.14-.64.16-.6.17-.58zm5.45-7.46l-.53.45-.67.6-.6.58-.53.57-.48.56-.43.54-.38.53-.2.32-1.68-1.1.24-.36.44-.6.48-.62.53-.62.6-.63.65-.64.73-.67.58-.47zm8.35-4.8l-.75.3-1.72.8-1.47.78-1.28.74-1-1.74 1.32-.76 1.54-.8 1.8-.85.78-.33zm9.3-3.14l-2.72.76-2.92.94-.62-1.9 2.96-.96 2.77-.77zm9.65-2.1l-4.47.85-1.35.33-.45-1.95 1.38-.32 4.52-.86zm9.77-1.4l-1.68.17-4.2.62-.3-1.98 4.25-.62 1.7-.18zm9.87-.93l-2.3.14-3.62.37-.2-1.98 3.67-.4 2.32-.13zm9.93-.62l-5.96.38-.13-2 5.97-.37zm9.9-.2l-5.96.12-.04-2 5.97-.12zm6.98-.14l-2.98.06-.04-2 3-.06z"/><path d="M660 361.44l-1.02.02-.04-2 1.06-.02zM1416.76 689.93l-14.36 4.32.2-9.26z"/><path d="M1420 690l-18.63 5.6.26-12zm-16.57 2.9l10.1-3.04-9.96-3.48z"/><use xlink:href="#k" transform="matrix(1,0,0,1,647.8691106224694,513.522963054132) translate(0 14.4)"/><use xlink:href="#t" transform="matrix(1,0,0,1,647.8691106224694,513.522963054132) translate(41.95 14.4)"/><use xlink:href="#u" transform="matrix(1,0,0,1,647.8691106224694,513.522963054132) translate(108.9 14.4)"/><use xlink:href="#v" transform="matrix(1,0,0,1,647.8691106224694,513.522963054132) translate(162.8 14.4)"/><use xlink:href="#w" transform="matrix(1,0,0,1,647.8691106224694,513.522963054132) translate(203.70000000000002 14.4)"/><path d="M611.2 404.4c3.27 0 5.83 2.4 5.83 5.35l22.96 80v4.9c0 2.95-2.65 5.34-5.85 5.34h-68.3c-3.2 0-5.85-2.4-5.85-5.36v-4.4l25.76-80.5c0-2.95 2.56-5.34 5.84-5.34z" fill="#4c891b"/><path d="M634.15 400c3.2 0 5.84 2.4 5.84 5.35v84.83c0 2.96-2.65 5.35-5.85 5.35h-68.3c-3.2 0-5.85-2.4-5.85-5.35v-84.83c0-2.96 2.64-5.35 5.84-5.35z" fill="#7ab648"/><path d="M627.5 440.4h-55.1v-5.88h55.1zm0-9.96h-55.1v-5.9h55.1zm0-10.44h-55.1v-5.9h55.1z" fill="#fff"/><use xlink:href="#x" transform="matrix(1,0,0,1,560,500) translate(-0.42500000000000426 14.4)"/><path d="M343.47 437.38l25.4 19.72v5.33c0 13.93-11.38 25.25-25.4 25.25-14 0-25.4-11.32-25.4-25.25v-5.33zM357.94 494.7c16.1 0 29.06 9.67 29.06 25.43V552h-16.7v-22.36h-2.88V552H320.1v-22.36h-2.87V552H300v-31.87c0-15.76 12.96-25.44 29.06-25.44z" fill="#7d7c7c"/><path d="M343.45 432c13.9.1 25.1 11.43 25 25.26-.1 13.83-11.5 24.95-25.4 24.85-13.8-.1-24.95-11.2-25-25 0-13.87 11.4-25.1 25.35-25.1h.05zM357.94 489.36c16.1 0 29.06 9.68 29.06 25.44v31.86h-16.7v-22.4h-2.88v22.4H320.1v-22.4h-2.87v22.4H300V514.8c0-15.76 12.96-25.44 29.06-25.44z" fill="#d2d3d3"/><use xlink:href="#y" transform="matrix(1,0,0,1,300,552) translate(28.325 14.4)"/><path d="M398.95 491.78l2.93-1.83.58-.33m7.16-4.07l.4-.23 6.92-3.56m7.46-3.5l.8-.36 6.8-2.8m7.73-2.84l.12-.05 7.46-2.35.28-.08m7.96-2.14l7.8-1.77.24-.04m8.1-1.5l.74-.12 7.4-1.04m8.2-.93l7.67-.74.52-.04m8.22-.45l8.23-.43m8.24-.15l8.24-.1m8.24-.08l4.12-.04" stroke="#000" stroke-width="2" fill="none"/><path d="M386.23 500.2l9.33-11.73 5.12 7.72zM556.76 460.03l-14.2 4.8-.1-9.28z" stroke="#000" stroke-width="2"/><path d="M447.02 580.43l43.36-24.7v-49.26l-43.36 24.63v49.33z" fill="#737373"/><path d="M403.7 555.72l43.33 24.68v-49.3l-43.33-24.6v49.22zM490.3 506.42L447 481.87l-43.26 24.55L447 531.07l43.3-24.65z" fill="#737373"/><path d="M447.03 529.2l40.02-22.74-.04-.02-39.97 22.75zM407.06 506.44l-.08.02 40.05 22.73-39.97-22.76z" fill="#fff"/><path d="M490.28 504.55L447.03 480l-43.34 24.55-1.63 1.03v51.15l43.34 24.66 1.63.9 1.62-.9L492 556.72v-51.15zm-1.62 50.24l-40.1 22.8V532.1l40.1-22.92zm-43.34 22.8l-40.02-22.8v-45.54l40.1 22.82zm-38.3-71.2l40-22.6 40.02 22.6-40 22.8-40.12-22.7z" fill="#fff"/><path d="M413.23 595.8l24.9-14.17v-28.3l-24.9 14.16v28.3zM388.2 581.65l25 14.25v-28.45l-25-14.2v28.4zM438 553.24l-24.8-14.07-24.8 14.07 24.8 14.12 24.8-14.12z" fill="#fff"/><path d="M413.2 566.03l22.48-12.77h-.02l-22.46 12.77zM390.7 553.25l22.5 12.78-22.5-12.78z" fill="#fff"/><path d="M438.14 551.87l-24.94-14.2-24.94 14.2-1.26.72v29.8l25 14.18 1.2.72 1.2-.72 25-14.18v-29.87zm-1.2 29.1l-22.54 12.87v-25.7l22.53-12.75zm-24.95 12.87l-22.54-12.87V555.4L412 568.14zm-21.33-40.6l22.48-12.75 22.47 12.74-22.42 12.82-22.53-12.82z" fill="#444"/><path d="M439.86 598.15l14.3-8.15v-16.24l-14.3 8.14v16.25zM425.07 590l14.3 8.15V581.9l-14.3-8.14V590zM453.84 573.34l-14.22-8.07-14.22 8.07 14.22 8.1 14.22-8.1z" fill="#115193"/><path d="M439.63 580.34l12.3-6.98h-.02l-12.27 6.98zM427.33 573.35l12.3 7-12.3-7z" fill="#fff"/><path d="M454.4 571.94l-14.76-8.38-14.78 8.38-1.25.7v18.24l14.8 8.42 1.2.7 1.23-.7 14.78-8.42v-18.25zm-1.22 17.52l-12.32 7v-14.07l12.32-7zm-27.1-14.03l12.3 6.96v14.02l-12.3-7.03zm1.24-2.07l12.32-7 12.3 7-12.33 6.95-12.3-6.94z" fill="#fff"/><use xlink:href="#z" transform="matrix(1,0,0,1,387,600) translate(14 14.4)"/><path d="M527.48 411.45l-5.8 5.77c-3.62 3.7-9.64 3.7-13.27 0l-52.56-52.3c-3.7-3.7-3.7-9.7 0-13.3l5.8-5.77c3.62-3.7 9.64-3.7 13.35 0l52.48 52.3 2.78 2v4.7c0 2.6-.93 4.76-2.78 6.6z" fill="#4b612c"/><path d="M463.38 304.66l-31.47 12.4-17.38 32.3v3.98c0-26.87 21.9-48.68 48.86-48.68s48.85 21.8 48.85 48.68v-5.06l-22-33.9z" fill="#4b612c"/><path d="M455.8 346.93l5.8-5.77c6.7-6.6 6.7-6.6 13.3 0l52.6 52.4c6.62 6.6 6.62 6.6 0 13.27l-5.8 5.78c-6.7 6.6-6.7 6.6-13.3 0l-52.6-52.4c-6.6-6.6-6.6-6.6 0-13.27z" fill="#759c3e"/><path d="M497.94 314.22c19.05 19.08 19.05 49.85 0 68.93-19.15 19-50.03 19-69.18 0-19.05-19.08-19.05-49.85 0-68.93 19.15-19 50.03-19 69.18 0z" fill="#759c3e"/><path d="M463.4 386.7c-21.14 0-38.15-17.03-38.15-38.02 0-21.06 17.1-38 38.15-38 21.13 0 38.15 17.02 38.15 38 0 10.5-3.74 19.47-11.22 26.92-7.4 7.37-16.4 11.1-26.93 11.1zm0-68.5c-8.47 0-15.64 2.96-21.67 8.9-11.9 11.93-11.9 31.24.08 43.18 12 11.86 31.3 11.86 43.27-.08 11.9-11.94 11.9-31.25 0-43.1-6.03-5.94-13.28-8.98-21.67-8.9zM463.98 359.22l-2 10.15" fill="#fff"/><path d="M461.98 371.28h-.36c-1.02-.2-1.7-1.18-1.5-2.2l2-10.16c.2-1.03 1.22-1.7 2.26-1.5 1.04.2 1.73 1.2 1.52 2.23l-2 10.16c-.2.9-1 1.52-1.92 1.48zM474.27 349.2l10.2-1.88M474.26 351.08c-1.04.1-1.96-.68-2.04-1.72-.1-1.03.66-1.95 1.7-2.04l10.22-1.88c1.04-.2 2.04.5 2.23 1.54.18 1.04-.5 2.03-1.55 2.22l-10.22 1.88zM457.33 354.22l-10.2 1.86M447.12 357.97c-1.04.1-1.96-.68-2.04-1.72-.1-1.04.66-1.95 1.7-2.05l10.22-1.88c1.04-.18 2.04.5 2.23 1.55.18 1.04-.5 2.03-1.55 2.22l-10.22 1.87zM469.45 342.3l2-10.16M469.46 344.17h-.36c-1.02-.2-1.7-1.18-1.5-2.2l2-10.2c.2-1.03 1.22-1.7 2.26-1.5 1.04.2 1.73 1.2 1.52 2.24l-2 10.17c-.18.92-1 1.54-1.92 1.5zM453.8 344.46l-5.38-5.44M453.8 346.33c-.52 0-.97-.2-1.33-.56l-5.38-5.43c-.84-.63-1-1.8-.4-2.64.64-.83 1.82-1 2.66-.38.14.12.26.23.37.38l5.4 5.36c.74.74.73 1.93-.02 2.66-.35.36-.78.54-1.3.54zM459.68 338.64l-5.37-5.44M459.7 340.52c-.53 0-.98-.18-1.34-.56l-5.38-5.43c-.8-.68-.87-1.87-.2-2.65.7-.8 1.9-.88 2.67-.2.1.07.14.13.2.2l5.4 5.44c.74.75.72 1.94-.02 2.66-.37.37-.8.54-1.32.54z" fill="#fff"/><path d="M455.75 355.5l1.03 1.02c5.14 5.18 12.65 6.1 16.8 2.02 4.16-4.08 3.32-11.6-1.88-16.77-1.02-1.03-1.2-.9-1.2-.9z" fill="#fff"/><path d="M467 362.96c-4.58-.12-8.44-1.8-11.6-5.12l-1.02-1.03c-.74-.73-.74-1.9 0-2.64l14.8-14.6c1.65-1.36 3.2.24 3.8.94 5.86 5.9 6.66 14.64 1.88 19.43-2.2 2.08-4.83 3.08-7.85 3.03zm-8.56-7.53c4.37 4.2 10.5 5 13.83 1.72 3.3-3.28 2.6-9.4-1.56-13.83zM455.54 340.34c-2.68 2.63-2.5 7.3 0 11.5l11.47-11.3c-4.07-2.6-8.78-2.83-11.46-.2z" fill="#fff"/><path d="M455.6 353.7h-.2c-.6-.06-1.07-.36-1.38-.88-3.12-5.07-3.02-10.63.22-13.8 3.25-3.18 8.82-3.22 13.87 0 .9.56 1.15 1.72.6 2.6-.07.13-.16.23-.28.34l-11.47 11.27c-.38.35-.83.52-1.34.48zm4.9-13.35c-1.4-.05-2.6.4-3.64 1.3-1.63 2.08-1.9 4.7-.72 7.06l7.76-7.62c-1.14-.46-2.17-.7-3.4-.73z" fill="#fff"/><g><use xlink:href="#A" transform="matrix(1,0,0,1,414.5,420) translate(40.525 14.4)"/></g><path d="M528.24 369.7c0 .54-.45 1-1 1-.56 0-1-.46-1-1 0-.57.44-1 1-1 .55 0 1 .43 1 1zm3.5 2.12c0 .56-.44 1-1 1-.54 0-1-.44-1-1 0-.55.46-1 1-1 .56 0 1 .45 1 1zm3.4 2.36c0 .55-.46 1-1 1-.57 0-1-.45-1-1 0-.56.43-1 1-1 .54 0 1 .44 1 1zm3.16 2.6c0 .57-.45 1-1 1s-1-.43-1-1c0-.54.45-1 1-1s1 .46 1 1zm3.13 2.7c0 .54-.45 1-1 1s-1-.46-1-1c0-.56.45-1 1-1s1 .44 1 1zm2.85 2.96c0 .55-.45 1-1 1-.56 0-1-.45-1-1s.44-1 1-1c.55 0 1 .45 1 1zm2.82 3c0 .55-.45 1-1 1s-1-.45-1-1c0-.56.45-1 1-1s1 .44 1 1z"/><path d="M513.15 363.95l14.96 1.1-3.5 8.57zM559.03 399.87l-12.92-7.62 6.96-6.14z" stroke="#000" stroke-width="2"/><defs><path d="M205 0l-28-72H64L36 0H1l101-248h38L239 0h-34zm-38-99l-47-123c-12 45-31 82-46 123h93" id="B"/><path d="M210-169c-67 3-38 105-44 169h-31v-121c0-29-5-50-35-48C34-165 62-65 56 0H25l-1-190h30c1 10-1 24 2 32 10-44 99-50 107 0 11-21 27-35 58-36 85-2 47 119 55 194h-31v-121c0-29-5-49-35-48" id="C"/><path d="M141-36C126-15 110 5 73 4 37 3 15-17 15-53c-1-64 63-63 125-63 3-35-9-54-41-54-24 1-41 7-42 31l-33-3c5-37 33-52 76-52 45 0 72 20 72 64v82c-1 20 7 32 28 27v20c-31 9-61-2-59-35zM48-53c0 20 12 33 32 33 41-3 63-29 60-74-43 2-92-5-92 41" id="D"/><path d="M9 0v-24l116-142H16v-24h144v24L44-24h123V0H9" id="E"/><path d="M100-194c62-1 85 37 85 99 1 63-27 99-86 99S16-35 15-95c0-66 28-99 85-99zM99-20c44 1 53-31 53-75 0-43-8-75-51-75s-53 32-53 75 10 74 51 75" id="F"/><path d="M117-194c89-4 53 116 60 194h-32v-121c0-31-8-49-39-48C34-167 62-67 57 0H25l-1-190h30c1 10-1 24 2 32 11-22 29-35 61-36" id="G"/><g id="a"><use transform="matrix(0.05,0,0,0.05,0,0)" xlink:href="#B"/><use transform="matrix(0.05,0,0,0.05,12,0)" xlink:href="#C"/><use transform="matrix(0.05,0,0,0.05,26.950000000000003,0)" xlink:href="#D"/><use transform="matrix(0.05,0,0,0.05,36.95,0)" xlink:href="#E"/><use transform="matrix(0.05,0,0,0.05,45.95,0)" xlink:href="#F"/><use transform="matrix(0.05,0,0,0.05,55.95,0)" xlink:href="#G"/></g><path d="M137 0h-34L2-248h35l83 218 83-218h36" id="H"/><path d="M30-248c87 1 191-15 191 75 0 78-77 80-158 76V0H30v-248zm33 125c57 0 124 11 124-50 0-59-68-47-124-48v98" id="I"/><path d="M212-179c-10-28-35-45-73-45-59 0-87 40-87 99 0 60 29 101 89 101 43 0 62-24 78-52l27 14C228-24 195 4 139 4 59 4 22-46 18-125c-6-104 99-153 187-111 19 9 31 26 39 46" id="J"/><g id="b"><use transform="matrix(0.05,0,0,0.05,0,0)" xlink:href="#H"/><use transform="matrix(0.05,0,0,0.05,12,0)" xlink:href="#I"/><use transform="matrix(0.05,0,0,0.05,24,0)" xlink:href="#J"/></g><path d="M115-194c55 1 70 41 70 98S169 2 115 4C84 4 66-9 55-30l1 105H24l-1-265h31l2 30c10-21 28-34 59-34zm-8 174c40 0 45-34 45-75s-6-73-45-74c-42 0-51 32-51 76 0 43 10 73 51 73" id="K"/><path d="M16-82v-28h88v28H16" id="L"/><g id="c"><use transform="matrix(0.05,0,0,0.05,0,0)" xlink:href="#G"/><use transform="matrix(0.05,0,0,0.05,10,0)" xlink:href="#K"/><use transform="matrix(0.05,0,0,0.05,20,0)" xlink:href="#C"/><use transform="matrix(0.05,0,0,0.05,34.95,0)" xlink:href="#L"/><use transform="matrix(0.05,0,0,0.05,40.900000000000006,0)" xlink:href="#D"/><use transform="matrix(0.05,0,0,0.05,50.900000000000006,0)" xlink:href="#K"/><use transform="matrix(0.05,0,0,0.05,60.900000000000006,0)" xlink:href="#K"/></g><path d="M96-169c-40 0-48 33-48 73s9 75 48 75c24 0 41-14 43-38l32 2c-6 37-31 61-74 61-59 0-76-41-82-99-10-93 101-131 147-64 4 7 5 14 7 22l-32 3c-4-21-16-35-41-35" id="M"/><path d="M59-47c-2 24 18 29 38 22v24C64 9 27 4 27-40v-127H5v-23h24l9-43h21v43h35v23H59v120" id="N"/><path d="M24-231v-30h32v30H24zM24 0v-190h32V0H24" id="O"/><path d="M100-194c63 0 86 42 84 106H49c0 40 14 67 53 68 26 1 43-12 49-29l28 8c-11 28-37 45-77 45C44 4 14-33 15-96c1-61 26-98 85-98zm52 81c6-60-76-77-97-28-3 7-6 17-6 28h103" id="P"/><path d="M114-163C36-179 61-72 57 0H25l-1-190h30c1 12-1 29 2 39 6-27 23-49 58-41v29" id="Q"/><g id="d"><use transform="matrix(0.05,0,0,0.05,0,0)" xlink:href="#M"/><use transform="matrix(0.05,0,0,0.05,9,0)" xlink:href="#F"/><use transform="matrix(0.05,0,0,0.05,19,0)" xlink:href="#G"/><use transform="matrix(0.05,0,0,0.05,29,0)" xlink:href="#N"/><use transform="matrix(0.05,0,0,0.05,34,0)" xlink:href="#D"/><use transform="matrix(0.05,0,0,0.05,44,0)" xlink:href="#O"/><use transform="matrix(0.05,0,0,0.05,47.95,0)" xlink:href="#G"/><use transform="matrix(0.05,0,0,0.05,57.95,0)" xlink:href="#P"/><use transform="matrix(0.05,0,0,0.05,67.95,0)" xlink:href="#Q"/></g><g id="e"><use transform="matrix(0.05,0,0,0.05,0,0)" xlink:href="#H"/><use transform="matrix(0.05,0,0,0.05,12,0)" xlink:href="#I"/><use transform="matrix(0.05,0,0,0.05,24,0)" xlink:href="#J"/></g><path d="M135-143c-3-34-86-38-87 0 15 53 115 12 119 90S17 21 10-45l28-5c4 36 97 45 98 0-10-56-113-15-118-90-4-57 82-63 122-42 12 7 21 19 24 35" id="R"/><path d="M84 4C-5 8 30-112 23-190h32v120c0 31 7 50 39 49 72-2 45-101 50-169h31l1 190h-30c-1-10 1-25-2-33-11 22-28 36-60 37" id="S"/><path d="M115-194c53 0 69 39 70 98 0 66-23 100-70 100C84 3 66-7 56-30L54 0H23l1-261h32v101c10-23 28-34 59-34zm-8 174c40 0 45-34 45-75 0-40-5-75-45-74-42 0-51 32-51 76 0 43 10 73 51 73" id="T"/><path d="M0 4l72-265h28L28 4H0" id="U"/><path d="M179-190L93 31C79 59 56 82 12 73V49c39 6 53-20 64-50L1-190h34L92-34l54-156h33" id="V"/><g id="f"><use transform="matrix(0.05,0,0,0.05,0,0)" xlink:href="#R"/><use transform="matrix(0.05,0,0,0.05,9,0)" xlink:href="#S"/><use transform="matrix(0.05,0,0,0.05,19,0)" xlink:href="#T"/><use transform="matrix(0.05,0,0,0.05,29,0)" xlink:href="#G"/><use transform="matrix(0.05,0,0,0.05,39,0)" xlink:href="#P"/><use transform="matrix(0.05,0,0,0.05,49,0)" xlink:href="#N"/><use transform="matrix(0.05,0,0,0.05,54,0)" xlink:href="#U"/><use transform="matrix(0.05,0,0,0.05,59,0)" xlink:href="#R"/><use transform="matrix(0.05,0,0,0.05,68,0)" xlink:href="#P"/><use transform="matrix(0.05,0,0,0.05,78,0)" xlink:href="#M"/><use transform="matrix(0.05,0,0,0.05,87,0)" xlink:href="#S"/><use transform="matrix(0.05,0,0,0.05,97,0)" xlink:href="#Q"/><use transform="matrix(0.05,0,0,0.05,102.95,0)" xlink:href="#O"/><use transform="matrix(0.05,0,0,0.05,106.9,0)" xlink:href="#N"/><use transform="matrix(0.05,0,0,0.05,111.9,0)" xlink:href="#V"/></g><path d="M177-190C167-65 218 103 67 71c-23-6-38-20-44-43l32-5c15 47 100 32 89-28v-30C133-14 115 1 83 1 29 1 15-40 15-95c0-56 16-97 71-98 29-1 48 16 59 35 1-10 0-23 2-32h30zM94-22c36 0 50-32 50-73 0-42-14-75-50-75-39 0-46 34-46 75s6 73 46 73" id="W"/><g id="g"><use transform="matrix(0.05,0,0,0.05,0,0)" xlink:href="#W"/><use transform="matrix(0.05,0,0,0.05,10,0)" xlink:href="#Q"/><use transform="matrix(0.05,0,0,0.05,15.949999999999998,0)" xlink:href="#F"/><use transform="matrix(0.05,0,0,0.05,25.950000000000003,0)" xlink:href="#S"/><use transform="matrix(0.05,0,0,0.05,35.95,0)" xlink:href="#K"/></g><g id="h"><use transform="matrix(0.05,0,0,0.05,0,0)" xlink:href="#B"/><use transform="matrix(0.05,0,0,0.05,12,0)" xlink:href="#C"/><use transform="matrix(0.05,0,0,0.05,26.950000000000003,0)" xlink:href="#D"/><use transform="matrix(0.05,0,0,0.05,36.95,0)" xlink:href="#E"/><use transform="matrix(0.05,0,0,0.05,45.95,0)" xlink:href="#F"/><use transform="matrix(0.05,0,0,0.05,55.95,0)" xlink:href="#G"/></g><path d="M30 0v-248h187v28H63v79h144v27H63v87h162V0H30" id="X"/><path d="M185-189c-5-48-123-54-124 2 14 75 158 14 163 119 3 78-121 87-175 55-17-10-28-26-33-46l33-7c5 56 141 63 141-1 0-78-155-14-162-118-5-82 145-84 179-34 5 7 8 16 11 25" id="Y"/><g id="i"><use transform="matrix(0.05,0,0,0.05,0,0)" xlink:href="#X"/><use transform="matrix(0.05,0,0,0.05,12,0)" xlink:href="#J"/><use transform="matrix(0.05,0,0,0.05,24.950000000000003,0)" xlink:href="#Y"/></g><path d="M127-220V0H93v-220H8v-28h204v28h-85" id="Z"/><path d="M143 0L79-87 56-68V0H24v-261h32v163l83-92h37l-77 82L181 0h-38" id="aa"/><g id="j"><use transform="matrix(0.05,0,0,0.05,0,0)" xlink:href="#Z"/><use transform="matrix(0.05,0,0,0.05,8.950000000000001,0)" xlink:href="#D"/><use transform="matrix(0.05,0,0,0.05,18.950000000000003,0)" xlink:href="#R"/><use transform="matrix(0.05,0,0,0.05,27.950000000000003,0)" xlink:href="#aa"/></g><g id="k"><use transform="matrix(0.05,0,0,0.05,0,0)" xlink:href="#X"/><use transform="matrix(0.05,0,0,0.05,12,0)" xlink:href="#J"/><use transform="matrix(0.05,0,0,0.05,24.950000000000003,0)" xlink:href="#Y"/></g><path d="M108 0H70L1-190h34L89-25l56-165h34" id="ab"/><g id="l"><use transform="matrix(0.05,0,0,0.05,0,0)" xlink:href="#Y"/><use transform="matrix(0.05,0,0,0.05,12,0)" xlink:href="#P"/><use transform="matrix(0.05,0,0,0.05,22,0)" xlink:href="#Q"/><use transform="matrix(0.05,0,0,0.05,27.950000000000003,0)" xlink:href="#ab"/><use transform="matrix(0.05,0,0,0.05,36.95,0)" xlink:href="#O"/><use transform="matrix(0.05,0,0,0.05,40.900000000000006,0)" xlink:href="#M"/><use transform="matrix(0.05,0,0,0.05,49.900000000000006,0)" xlink:href="#P"/></g><path d="M24 0v-261h32V0H24" id="ac"/><g id="m"><use transform="matrix(0.05,0,0,0.05,0,0)" xlink:href="#J"/><use transform="matrix(0.05,0,0,0.05,12.950000000000001,0)" xlink:href="#ac"/><use transform="matrix(0.05,0,0,0.05,16.900000000000002,0)" xlink:href="#S"/><use transform="matrix(0.05,0,0,0.05,26.900000000000002,0)" xlink:href="#R"/><use transform="matrix(0.05,0,0,0.05,35.900000000000006,0)" xlink:href="#N"/><use transform="matrix(0.05,0,0,0.05,40.900000000000006,0)" xlink:href="#P"/><use transform="matrix(0.05,0,0,0.05,50.900000000000006,0)" xlink:href="#Q"/></g><g id="n"><use transform="matrix(0.05,0,0,0.05,0,0)" xlink:href="#S"/><use transform="matrix(0.05,0,0,0.05,10,0)" xlink:href="#R"/><use transform="matrix(0.05,0,0,0.05,19,0)" xlink:href="#P"/><use transform="matrix(0.05,0,0,0.05,29,0)" xlink:href="#Q"/><use transform="matrix(0.05,0,0,0.05,34.95,0)" xlink:href="#R"/></g><path d="M33 0v-248h34V0H33" id="ad"/><g id="o"><use transform="matrix(0.05,0,0,0.05,0,0)" xlink:href="#ad"/><use transform="matrix(0.05,0,0,0.05,5,0)" xlink:href="#G"/><use transform="matrix(0.05,0,0,0.05,15,0)" xlink:href="#N"/><use transform="matrix(0.05,0,0,0.05,20,0)" xlink:href="#P"/><use transform="matrix(0.05,0,0,0.05,30,0)" xlink:href="#Q"/><use transform="matrix(0.05,0,0,0.05,35.95,0)" xlink:href="#G"/><use transform="matrix(0.05,0,0,0.05,45.95,0)" xlink:href="#P"/><use transform="matrix(0.05,0,0,0.05,55.95,0)" xlink:href="#N"/></g><path d="M206 0h-36l-40-164L89 0H53L-1-190h32L70-26l43-164h34l41 164 42-164h31" id="ae"/><g id="p"><use transform="matrix(0.05,0,0,0.05,0,0)" xlink:href="#W"/><use transform="matrix(0.05,0,0,0.05,10,0)" xlink:href="#D"/><use transform="matrix(0.05,0,0,0.05,20,0)" xlink:href="#N"/><use transform="matrix(0.05,0,0,0.05,25,0)" xlink:href="#P"/><use transform="matrix(0.05,0,0,0.05,35,0)" xlink:href="#ae"/><use transform="matrix(0.05,0,0,0.05,47.95,0)" xlink:href="#D"/><use transform="matrix(0.05,0,0,0.05,57.95,0)" xlink:href="#V"/></g><g id="q"><use transform="matrix(0.05,0,0,0.05,0,0)" xlink:href="#B"/><use transform="matrix(0.05,0,0,0.05,12,0)" xlink:href="#K"/><use transform="matrix(0.05,0,0,0.05,22,0)" xlink:href="#K"/><use transform="matrix(0.05,0,0,0.05,32,0)" xlink:href="#ac"/><use transform="matrix(0.05,0,0,0.05,35.95,0)" xlink:href="#O"/><use transform="matrix(0.05,0,0,0.05,39.900000000000006,0)" xlink:href="#M"/><use transform="matrix(0.05,0,0,0.05,48.900000000000006,0)" xlink:href="#D"/><use transform="matrix(0.05,0,0,0.05,58.900000000000006,0)" xlink:href="#N"/><use transform="matrix(0.05,0,0,0.05,63.900000000000006,0)" xlink:href="#O"/><use transform="matrix(0.05,0,0,0.05,67.85000000000001,0)" xlink:href="#F"/><use transform="matrix(0.05,0,0,0.05,77.85000000000001,0)" xlink:href="#G"/></g><path d="M30 0v-248h33v221h125V0H30" id="af"/><path d="M85-194c31 0 48 13 60 33l-1-100h32l1 261h-30c-2-10 0-23-3-31C134-8 116 4 85 4 32 4 16-35 15-94c0-66 23-100 70-100zm9 24c-40 0-46 34-46 75 0 40 6 74 45 74 42 0 51-32 51-76 0-42-9-74-50-73" id="ag"/><g id="r"><use transform="matrix(0.05,0,0,0.05,0,0)" xlink:href="#af"/><use transform="matrix(0.05,0,0,0.05,10,0)" xlink:href="#F"/><use transform="matrix(0.05,0,0,0.05,20,0)" xlink:href="#D"/><use transform="matrix(0.05,0,0,0.05,30,0)" xlink:href="#ag"/></g><path d="M160-131c35 5 61 23 61 61C221 17 115-2 30 0v-248c76 3 177-17 177 60 0 33-19 50-47 57zm-97-11c50-1 110 9 110-42 0-47-63-36-110-37v79zm0 115c55-2 124 14 124-45 0-56-70-42-124-44v89" id="ah"/><g id="s"><use transform="matrix(0.05,0,0,0.05,0,0)" xlink:href="#ah"/><use transform="matrix(0.05,0,0,0.05,12,0)" xlink:href="#D"/><use transform="matrix(0.05,0,0,0.05,22,0)" xlink:href="#ac"/><use transform="matrix(0.05,0,0,0.05,25.950000000000003,0)" xlink:href="#D"/><use transform="matrix(0.05,0,0,0.05,35.95,0)" xlink:href="#G"/><use transform="matrix(0.05,0,0,0.05,45.95,0)" xlink:href="#M"/><use transform="matrix(0.05,0,0,0.05,54.95,0)" xlink:href="#P"/><use transform="matrix(0.05,0,0,0.05,64.95,0)" xlink:href="#Q"/></g><g id="t"><use transform="matrix(0.05,0,0,0.05,0,0)" xlink:href="#ag"/><use transform="matrix(0.05,0,0,0.05,10,0)" xlink:href="#P"/><use transform="matrix(0.05,0,0,0.05,20,0)" xlink:href="#K"/><use transform="matrix(0.05,0,0,0.05,30,0)" xlink:href="#ac"/><use transform="matrix(0.05,0,0,0.05,33.95,0)" xlink:href="#F"/><use transform="matrix(0.05,0,0,0.05,43.95,0)" xlink:href="#V"/><use transform="matrix(0.05,0,0,0.05,52.95,0)" xlink:href="#R"/></g><g id="u"><use transform="matrix(0.05,0,0,0.05,0,0)" xlink:href="#O"/><use transform="matrix(0.05,0,0,0.05,3.95,0)" xlink:href="#C"/><use transform="matrix(0.05,0,0,0.05,18.900000000000002,0)" xlink:href="#D"/><use transform="matrix(0.05,0,0,0.05,28.900000000000002,0)" xlink:href="#W"/><use transform="matrix(0.05,0,0,0.05,38.900000000000006,0)" xlink:href="#P"/></g><path d="M101-234c-31-9-42 10-38 44h38v23H63V0H32v-167H5v-23h27c-7-52 17-82 69-68v24" id="ai"/><g id="v"><use transform="matrix(0.05,0,0,0.05,0,0)" xlink:href="#ai"/><use transform="matrix(0.05,0,0,0.05,5,0)" xlink:href="#Q"/><use transform="matrix(0.05,0,0,0.05,10.95,0)" xlink:href="#F"/><use transform="matrix(0.05,0,0,0.05,20.95,0)" xlink:href="#C"/></g><g id="w"><use transform="matrix(0.05,0,0,0.05,0,0)" xlink:href="#B"/><use transform="matrix(0.05,0,0,0.05,12,0)" xlink:href="#Q"/><use transform="matrix(0.05,0,0,0.05,17.95,0)" xlink:href="#N"/><use transform="matrix(0.05,0,0,0.05,22.95,0)" xlink:href="#O"/><use transform="matrix(0.05,0,0,0.05,26.899999999999995,0)" xlink:href="#ai"/><use transform="matrix(0.05,0,0,0.05,31.899999999999995,0)" xlink:href="#D"/><use transform="matrix(0.05,0,0,0.05,41.9,0)" xlink:href="#M"/><use transform="matrix(0.05,0,0,0.05,50.9,0)" xlink:href="#N"/><use transform="matrix(0.05,0,0,0.05,55.900000000000006,0)" xlink:href="#F"/><use transform="matrix(0.05,0,0,0.05,65.9,0)" xlink:href="#Q"/><use transform="matrix(0.05,0,0,0.05,71.85000000000001,0)" xlink:href="#V"/></g><g id="x"><use transform="matrix(0.05,0,0,0.05,0,0)" xlink:href="#B"/><use transform="matrix(0.05,0,0,0.05,12,0)" xlink:href="#Q"/><use transform="matrix(0.05,0,0,0.05,17.95,0)" xlink:href="#N"/><use transform="matrix(0.05,0,0,0.05,22.95,0)" xlink:href="#O"/><use transform="matrix(0.05,0,0,0.05,26.899999999999995,0)" xlink:href="#ai"/><use transform="matrix(0.05,0,0,0.05,31.899999999999995,0)" xlink:href="#D"/><use transform="matrix(0.05,0,0,0.05,41.9,0)" xlink:href="#M"/><use transform="matrix(0.05,0,0,0.05,50.9,0)" xlink:href="#N"/><use transform="matrix(0.05,0,0,0.05,55.900000000000006,0)" xlink:href="#F"/><use transform="matrix(0.05,0,0,0.05,65.9,0)" xlink:href="#Q"/><use transform="matrix(0.05,0,0,0.05,71.85000000000001,0)" xlink:href="#V"/></g><path d="M137-103V0h-34v-103L8-248h37l75 118 75-118h37" id="aj"/><g id="y"><use transform="matrix(0.05,0,0,0.05,0,0)" xlink:href="#aj"/><use transform="matrix(0.05,0,0,0.05,10.35,0)" xlink:href="#F"/><use transform="matrix(0.05,0,0,0.05,20.35,0)" xlink:href="#S"/></g><g id="z"><use transform="matrix(0.05,0,0,0.05,0,0)" xlink:href="#K"/><use transform="matrix(0.05,0,0,0.05,10,0)" xlink:href="#D"/><use transform="matrix(0.05,0,0,0.05,20,0)" xlink:href="#M"/><use transform="matrix(0.05,0,0,0.05,29,0)" xlink:href="#aa"/><use transform="matrix(0.05,0,0,0.05,38,0)" xlink:href="#D"/><use transform="matrix(0.05,0,0,0.05,48,0)" xlink:href="#W"/><use transform="matrix(0.05,0,0,0.05,58,0)" xlink:href="#P"/><use transform="matrix(0.05,0,0,0.05,68,0)" xlink:href="#R"/></g><path d="M195 0l-74-108L45 0H8l94-129-87-119h37l69 98 67-98h37l-84 118L233 0h-38" id="ak"/><g id="A"><use transform="matrix(0.05,0,0,0.05,0,0)" xlink:href="#ak"/><use transform="matrix(0.05,0,0,0.05,12,0)" xlink:href="#Q"/><use transform="matrix(0.05,0,0,0.05,17.95,0)" xlink:href="#D"/><use transform="matrix(0.05,0,0,0.05,27.950000000000003,0)" xlink:href="#V"/></g></defs></g></svg>