<svg xmlns="http://www.w3.org/2000/svg" xmlns:xlink="http://www.w3.org/1999/xlink" xmlns:lucid="lucid" width="970.95" height="402"><g transform="translate(-130.05 -119)" lucid:page-tab-id="J-cH~M-fi_G_"><g filter="url(#a)"><path d="M300 394c0-7.73 6.27-14 14-14h132c7.73 0 14 6.27 14 14v92c0 7.73-6.27 14-14 14H314c-7.73 0-14-6.27-14-14z" stroke="#000" stroke-width="2" fill="#fcc438"/><use xlink:href="#b" transform="matrix(1,0,0,1,312,392) translate(14.875 41.4)"/><use xlink:href="#c" transform="matrix(1,0,0,1,312,392) translate(60.175 41.4)"/><use xlink:href="#d" transform="matrix(1,0,0,1,312,392) translate(32.55 63)"/></g><path d="M235.06 180H188c-4.35 0-8 3.6-8 7.92v32.88c0 4.32 3.65 7.56 8.3 7.56h9.26v58.68c0 7.68 4.65 12.96 11.26 12.96 5.98 0 10.57-4.68 11.26-10.92 1.64-.36 3.02-.36 3.02-.36s.32-6 0-8.04c-.37-1.92 3.65-4.32 3.65-4.32s.38-3.24 0-3.6c-3.65-1.68-5.66-3.36-6.67-4.68v-3.96c1-1.32 2.33-2.28 3.02-3 1.26-1.68 4.28-6.24 4.28-6.24s-3.27-4.68-4.28-5.64c-1.7-2.04-2.64-3.96-3.02-5.64v-3c1-6.72 8.62-12.36 8.62-12.36h-8.62 15.3c3.9 0 7.55-3.24 7.55-7.56v-32.76c-.32-4.32-3.6-7.92-7.87-7.92zM207.8 288.72c0 2.04-.3 4.32-2.63 4.32-2.27 0-2.58-2.28-2.58-4.32v-54.36c0-2.04.62-4.32 2.57-4.32 2 0 2.64 2.28 2.64 4.32v54.36zm3.73-88.8c-3.97 0-7.3-3.36-7.3-7.32 0-3.96 3.27-7.32 7.3-7.32 3.9 0 7.3 3.24 7.3 7.32 0 3.96-3.4 7.32-7.3 7.32z" stroke="#000" stroke-opacity="0" fill="#2a3282"/><use xlink:href="#e" transform="matrix(1,0,0,1,150,309) translate(21.074999999999996 14.4)"/><use xlink:href="#f" transform="matrix(1,0,0,1,150,309) translate(2.049999999999997 36)"/><use xlink:href="#g" transform="matrix(1,0,0,1,150,309) translate(91.95 36)"/><use xlink:href="#h" transform="matrix(1,0,0,1,150,309) translate(46 57.6)"/><g filter="url(#a)"><path d="M520 394c0-7.73 6.27-14 14-14h132c7.73 0 14 6.27 14 14v92c0 7.73-6.27 14-14 14H534c-7.73 0-14-6.27-14-14z" stroke="#000" stroke-width="2" fill="#fcc438"/><use xlink:href="#i" transform="matrix(1,0,0,1,532,392) translate(31.074999999999996 50.4)"/><use xlink:href="#j" transform="matrix(1,0,0,1,532,392) translate(68.025 50.4)"/></g><g filter="url(#a)"><path d="M740 394c0-7.73 6.27-14 14-14h132c7.73 0 14 6.27 14 14v92c0 7.73-6.27 14-14 14H754c-7.73 0-14-6.27-14-14z" stroke="#000" stroke-width="2" fill="#fcc438"/><use xlink:href="#k" transform="matrix(1,0,0,1,752,392) translate(14.049999999999997 50.4)"/><use xlink:href="#l" transform="matrix(1,0,0,1,752,392) translate(85 50.4)"/></g><g filter="url(#a)"><path d="M920 154c0-7.73 6.27-14 14-14h132c7.73 0 14 6.27 14 14v92c0 7.73-6.27 14-14 14H934c-7.73 0-14-6.27-14-14z" stroke="#000" stroke-width="2" fill="#7ab648"/><use xlink:href="#m" transform="matrix(1,0,0,1,932,152) translate(2.125 50.4)"/><use xlink:href="#n" transform="matrix(1,0,0,1,932,152) translate(53.025000000000006 50.4)"/></g><path d="M380.23 360.44l-2 .16-.34-4.02 2-.17zm-1.73-15.75l.46 3.65-1.98.26-.46-3.6-.73-4.34 1.96-.33zm-3.5-18.44l1.28 6.1-1.95.4-1.3-6.04-.45-1.8 1.94-.48zm-4.77-17.1l2.23 7.43-1.9.57-2.24-7.38-.1-.32 1.88-.66zm-2.8-8l-1.85.74-2.98-7.5 1.86-.74zm-9.5-21.42l3.2 6.47-1.78.9-3.2-6.43-.4-.75 1.75-.96zm-7.1-12.3l2.7 4.44-1.72 1.04-2.65-4.4-1.6-2.4 1.67-1.1zm-21.54-26.7h-1.46l.7-.72zm-10-8.82l3.2 2.64-1.28 1.54-3.15-2.6-3.14-2.4 1.2-1.58zm-12.68-8.83l2.82 1.78-1.07 1.7-2.8-1.78-4.1-2.37 1-1.73zm-17.75-8.83l4.55 1.9 1.8.85-.87 1.8-1.75-.8-4.46-1.9-1.14-.4.7-1.88zm-14.15-4.6l4.82 1.35.5.16-.62 1.9-.46-.14-4.74-1.33-2.52-.58.46-1.94zm-15.18-2.88l4.62.67-.3 1.98-4.58-.68-3.37-.35.22-2zm-11.56-.93l-.04 2-4.03-.1.05-2z"/><path d="M243.97 205.78l-.04 2-1-.02v-2zM379.87 375.77l-5.23-14.06 9.26-.38z"/><path d="M380 379l-6.78-18.24 12.02-.5zm-3.94-16.35l3.67 9.88 2.84-10.15z"/><use xlink:href="#o" transform="matrix(1,0,0,1,293.48941551191155,240.74678819457995) translate(0 14.4)"/><use xlink:href="#p" transform="matrix(1,0,0,1,293.48941551191155,240.74678819457995) translate(37 14.4)"/><path d="M462 440h38.5" stroke="#000" stroke-width="2" fill="none"/><path d="M462.03 441H461v-2h1.03z"/><path d="M515.76 440l-14.26 4.64v-9.28z" stroke="#000" stroke-width="2"/><path d="M682 440h38.5" stroke="#000" stroke-width="2" fill="none"/><path d="M682.03 441H681v-2h1.03z"/><path d="M735.76 440l-14.26 4.64v-9.28z" stroke="#000" stroke-width="2"/><path d="M826.35 307.6l-2.02 13.73-1.68 16.1-1.2 19.05-.43 21.54-2-.04.44-21.6 1.2-19.1 1.7-16.2 2.02-13.8 1.4-7.4h2.04zm74.48-104.8l-2.13.45-3.16.8-3.04.93-2.94 1.02-2.85 1.13-2.77 1.23-2.7 1.35-2.66 1.47-2.6 1.57-2.57 1.7-2.53 1.85-2.5 1.97-2.5 2.15-2.47 2.33-2.47 2.52-2.46 2.74-2.47 3-2.47 3.25-2.48 3.57-2.5 3.94-2.5 4.34-2.53 4.83-2.53 5.38-2.54 6.05-2.53 6.8-2.5 7.73-.4 1.4h-2.08l.56-1.98 2.54-7.8 2.56-6.9 2.56-6.1 2.57-5.46 2.56-4.9 2.54-4.42 2.54-4 2.53-3.65 2.53-3.32 2.53-3.05 2.52-2.8 2.52-2.58 2.54-2.38 2.55-2.2 2.56-2.05 2.6-1.9 2.63-1.74 2.67-1.63 2.73-1.5 2.78-1.38 2.85-1.27 2.93-1.16 3.02-1.05 3.13-.94 3.25-.83 2.16-.46z"/><path d="M821.02 378l-.02 1h-2l.02-1.05zM915.78 200.32l-13.74 6-.9-9.2z"/><path d="M919 200l-17.82 7.8-1.18-11.96zm-16.1 4.87l9.66-4.23-10.3-2.26z"/><use xlink:href="#q" transform="matrix(1,0,0,1,779.1666536976073,278.28992671135893) translate(0 14.4)"/><path d="M980.84 384.5l-2.57 5.46-2.56 4.9-2.54 4.42-2.54 4-2.53 3.65-2.53 3.32-2.53 3.05-2.52 2.8-2.52 2.58-2.54 2.38-2.55 2.2-2.56 2.05-2.6 1.9-2.63 1.74-2.67 1.63-2.73 1.5-2.78 1.38-2.85 1.27-2.93 1.16-3.02 1.05-3.13.94-3.25.83-2.16.46-.43-1.95 2.13-.45 3.16-.8 3.04-.93 2.94-1.02 2.85-1.13 2.77-1.23 2.7-1.35 2.66-1.47 2.6-1.57 2.57-1.7 2.53-1.85 2.5-1.97 2.5-2.15 2.47-2.33 2.47-2.52 2.46-2.74 2.47-3 2.47-3.25 2.48-3.57 2.5-3.94 2.5-4.34 2.53-4.83 2.17-4.62h2.2zm20.14-122.48l-.44 21.6-1.2 19.1-1.7 16.2-2.02 13.8-2.25 11.84-2.4 10.23-2.24 8.05h-2.07l2.38-8.55 2.37-10.15 2.25-11.76 2.02-13.73 1.68-16.1 1.2-19.05.43-21.54z"/><path d="M1000.98 262.05l-2-.04.02-1h2zM918.87 442.9l-14.65-3.22 13.74-6z"/><path d="M920 444.16L901 440l17.82-7.8zm-12.56-4.8l10.3 2.26-.64-6.5z"/><g><use xlink:href="#r" transform="matrix(1,0,0,1,941.6734119354339,362.8468872260483) translate(0 14.4)"/><use xlink:href="#s" transform="matrix(1,0,0,1,941.6734119354339,362.8468872260483) translate(34.9 14.4)"/></g><defs><path d="M205 0l-28-72H64L36 0H1l101-248h38L239 0h-34zm-38-99l-47-123c-12 45-31 82-46 123h93" id="t"/><path d="M266 0h-40l-56-210L115 0H75L2-248h35L96-30l15-64 43-154h32l59 218 59-218h35" id="u"/><path d="M185-189c-5-48-123-54-124 2 14 75 158 14 163 119 3 78-121 87-175 55-17-10-28-26-33-46l33-7c5 56 141 63 141-1 0-78-155-14-162-118-5-82 145-84 179-34 5 7 8 16 11 25" id="v"/><g id="b"><use transform="matrix(0.05,0,0,0.05,0,0)" xlink:href="#t"/><use transform="matrix(0.05,0,0,0.05,11.35,0)" xlink:href="#u"/><use transform="matrix(0.05,0,0,0.05,28.299999999999997,0)" xlink:href="#v"/></g><path d="M100-194c63 0 86 42 84 106H49c0 40 14 67 53 68 26 1 43-12 49-29l28 8c-11 28-37 45-77 45C44 4 14-33 15-96c1-61 26-98 85-98zm52 81c6-60-76-77-97-28-3 7-6 17-6 28h103" id="w"/><path d="M96-169c-40 0-48 33-48 73s9 75 48 75c24 0 41-14 43-38l32 2c-6 37-31 61-74 61-59 0-76-41-82-99-10-93 101-131 147-64 4 7 5 14 7 22l-32 3c-4-21-16-35-41-35" id="x"/><path d="M114-163C36-179 61-72 57 0H25l-1-190h30c1 12-1 29 2 39 6-27 23-49 58-41v29" id="y"/><path d="M59-47c-2 24 18 29 38 22v24C64 9 27 4 27-40v-127H5v-23h24l9-43h21v43h35v23H59v120" id="z"/><path d="M135-143c-3-34-86-38-87 0 15 53 115 12 119 90S17 21 10-45l28-5c4 36 97 45 98 0-10-56-113-15-118-90-4-57 82-63 122-42 12 7 21 19 24 35" id="A"/><g id="c"><use transform="matrix(0.05,0,0,0.05,0,0)" xlink:href="#v"/><use transform="matrix(0.05,0,0,0.05,12,0)" xlink:href="#w"/><use transform="matrix(0.05,0,0,0.05,22,0)" xlink:href="#x"/><use transform="matrix(0.05,0,0,0.05,31,0)" xlink:href="#y"/><use transform="matrix(0.05,0,0,0.05,36.95,0)" xlink:href="#w"/><use transform="matrix(0.05,0,0,0.05,46.95,0)" xlink:href="#z"/><use transform="matrix(0.05,0,0,0.05,51.95,0)" xlink:href="#A"/></g><path d="M240 0l2-218c-23 76-54 145-80 218h-23L58-218 59 0H30v-248h44l77 211c21-75 51-140 76-211h43V0h-30" id="B"/><path d="M141-36C126-15 110 5 73 4 37 3 15-17 15-53c-1-64 63-63 125-63 3-35-9-54-41-54-24 1-41 7-42 31l-33-3c5-37 33-52 76-52 45 0 72 20 72 64v82c-1 20 7 32 28 27v20c-31 9-61-2-59-35zM48-53c0 20 12 33 32 33 41-3 63-29 60-74-43 2-92-5-92 41" id="C"/><path d="M117-194c89-4 53 116 60 194h-32v-121c0-31-8-49-39-48C34-167 62-67 57 0H25l-1-190h30c1 10-1 24 2 32 11-22 29-35 61-36" id="D"/><path d="M177-190C167-65 218 103 67 71c-23-6-38-20-44-43l32-5c15 47 100 32 89-28v-30C133-14 115 1 83 1 29 1 15-40 15-95c0-56 16-97 71-98 29-1 48 16 59 35 1-10 0-23 2-32h30zM94-22c36 0 50-32 50-73 0-42-14-75-50-75-39 0-46 34-46 75s6 73 46 73" id="E"/><g id="d"><use transform="matrix(0.05,0,0,0.05,0,0)" xlink:href="#B"/><use transform="matrix(0.05,0,0,0.05,14.950000000000001,0)" xlink:href="#C"/><use transform="matrix(0.05,0,0,0.05,24.950000000000003,0)" xlink:href="#D"/><use transform="matrix(0.05,0,0,0.05,34.95,0)" xlink:href="#C"/><use transform="matrix(0.05,0,0,0.05,44.95,0)" xlink:href="#E"/><use transform="matrix(0.05,0,0,0.05,54.95,0)" xlink:href="#w"/><use transform="matrix(0.05,0,0,0.05,64.95,0)" xlink:href="#y"/></g><filter id="a" filterUnits="objectBoundingBox" x="-.06" y="-.03" width="1.13" height="1.17"><feOffset result="offOut" in="SourceAlpha" dy="6"/><feGaussianBlur result="blurOut" in="offOut" stdDeviation="5"/><feColorMatrix result="colorOut" in="blurOut" values="0 0 0 0 0 0 0 0 0 0 0 0 0 0 0 0 0 0 0.5019607843137255 0"/><feBlend in="SourceGraphic" in2="colorOut"/></filter><path d="M24-231v-30h32v30H24zM24 0v-190h32V0H24" id="F"/><path d="M101-234c-31-9-42 10-38 44h38v23H63V0H32v-167H5v-23h27c-7-52 17-82 69-68v24" id="G"/><path d="M100-194c62-1 85 37 85 99 1 63-27 99-86 99S16-35 15-95c0-66 28-99 85-99zM99-20c44 1 53-31 53-75 0-43-8-75-51-75s-53 32-53 75 10 74 51 75" id="H"/><path d="M179-190L93 31C79 59 56 82 12 73V49c39 6 53-20 64-50L1-190h34L92-34l54-156h33" id="I"/><g id="e"><use transform="matrix(0.05,0,0,0.05,0,0)" xlink:href="#t"/><use transform="matrix(0.05,0,0,0.05,12,0)" xlink:href="#y"/><use transform="matrix(0.05,0,0,0.05,17.95,0)" xlink:href="#z"/><use transform="matrix(0.05,0,0,0.05,22.95,0)" xlink:href="#F"/><use transform="matrix(0.05,0,0,0.05,26.899999999999995,0)" xlink:href="#G"/><use transform="matrix(0.05,0,0,0.05,31.899999999999995,0)" xlink:href="#C"/><use transform="matrix(0.05,0,0,0.05,41.9,0)" xlink:href="#x"/><use transform="matrix(0.05,0,0,0.05,50.9,0)" xlink:href="#z"/><use transform="matrix(0.05,0,0,0.05,55.900000000000006,0)" xlink:href="#H"/><use transform="matrix(0.05,0,0,0.05,65.9,0)" xlink:href="#y"/><use transform="matrix(0.05,0,0,0.05,71.85000000000001,0)" xlink:href="#I"/></g><path d="M84 4C-5 8 30-112 23-190h32v120c0 31 7 50 39 49 72-2 45-101 50-169h31l1 190h-30c-1-10 1-25-2-33-11 22-28 36-60 37" id="J"/><path d="M210-169c-67 3-38 105-44 169h-31v-121c0-29-5-50-35-48C34-165 62-65 56 0H25l-1-190h30c1 10-1 24 2 32 10-44 99-50 107 0 11-21 27-35 58-36 85-2 47 119 55 194h-31v-121c0-29-5-49-35-48" id="K"/><path d="M0 4l72-265h28L28 4H0" id="L"/><g id="f"><use transform="matrix(0.05,0,0,0.05,0,0)" xlink:href="#J"/><use transform="matrix(0.05,0,0,0.05,10,0)" xlink:href="#A"/><use transform="matrix(0.05,0,0,0.05,19,0)" xlink:href="#w"/><use transform="matrix(0.05,0,0,0.05,29,0)" xlink:href="#y"/><use transform="matrix(0.05,0,0,0.05,34.95,0)" xlink:href="#D"/><use transform="matrix(0.05,0,0,0.05,44.95,0)" xlink:href="#C"/><use transform="matrix(0.05,0,0,0.05,54.95,0)" xlink:href="#K"/><use transform="matrix(0.05,0,0,0.05,69.9,0)" xlink:href="#w"/><use transform="matrix(0.05,0,0,0.05,79.9,0)" xlink:href="#L"/></g><path d="M30-248c87 1 191-15 191 75 0 78-77 80-158 76V0H30v-248zm33 125c57 0 124 11 124-50 0-59-68-47-124-48v98" id="M"/><path d="M33 0v-248h34V0H33" id="N"/><g id="g"><use transform="matrix(0.05,0,0,0.05,0,0)" xlink:href="#t"/><use transform="matrix(0.05,0,0,0.05,12,0)" xlink:href="#M"/><use transform="matrix(0.05,0,0,0.05,24,0)" xlink:href="#N"/></g><path d="M194 0L95-120 63-95V0H30v-248h33v124l119-124h40L117-140 236 0h-42" id="O"/><g id="h"><use transform="matrix(0.05,0,0,0.05,0,0)" xlink:href="#O"/><use transform="matrix(0.05,0,0,0.05,12,0)" xlink:href="#w"/><use transform="matrix(0.05,0,0,0.05,22,0)" xlink:href="#I"/></g><g id="i"><use transform="matrix(0.05,0,0,0.05,0,0)" xlink:href="#N"/><use transform="matrix(0.05,0,0,0.05,5,0)" xlink:href="#t"/><use transform="matrix(0.05,0,0,0.05,17,0)" xlink:href="#B"/></g><path d="M233-177c-1 41-23 64-60 70L243 0h-38l-65-103H63V0H30v-248c88 3 205-21 203 71zM63-129c60-2 137 13 137-47 0-61-80-42-137-45v92" id="P"/><path d="M24 0v-261h32V0H24" id="Q"/><g id="j"><use transform="matrix(0.05,0,0,0.05,0,0)" xlink:href="#P"/><use transform="matrix(0.05,0,0,0.05,12.950000000000001,0)" xlink:href="#H"/><use transform="matrix(0.05,0,0,0.05,22.950000000000003,0)" xlink:href="#Q"/><use transform="matrix(0.05,0,0,0.05,26.900000000000002,0)" xlink:href="#w"/></g><path d="M9 0v-24l116-142H16v-24h144v24L44-24h123V0H9" id="R"/><g id="k"><use transform="matrix(0.05,0,0,0.05,0,0)" xlink:href="#t"/><use transform="matrix(0.05,0,0,0.05,12,0)" xlink:href="#K"/><use transform="matrix(0.05,0,0,0.05,26.950000000000003,0)" xlink:href="#C"/><use transform="matrix(0.05,0,0,0.05,36.95,0)" xlink:href="#R"/><use transform="matrix(0.05,0,0,0.05,45.95,0)" xlink:href="#H"/><use transform="matrix(0.05,0,0,0.05,55.95,0)" xlink:href="#D"/></g><path d="M30 0v-248h187v28H63v79h144v27H63v87h162V0H30" id="S"/><path d="M212-179c-10-28-35-45-73-45-59 0-87 40-87 99 0 60 29 101 89 101 43 0 62-24 78-52l27 14C228-24 195 4 139 4 59 4 22-46 18-125c-6-104 99-153 187-111 19 9 31 26 39 46" id="T"/><g id="l"><use transform="matrix(0.05,0,0,0.05,0,0)" xlink:href="#S"/><use transform="matrix(0.05,0,0,0.05,12,0)" xlink:href="#T"/><use transform="matrix(0.05,0,0,0.05,24.950000000000003,0)" xlink:href="#v"/></g><path d="M153-248C145-148 188 4 80 4 36 3 13-21 6-62l32-5c4 25 16 42 43 43 27 0 39-20 39-49v-147H72v-28h81" id="U"/><path d="M63-220v92h138v28H63V0H30v-248h175v28H63" id="V"/><g id="m"><use transform="matrix(0.05,0,0,0.05,0,0)" xlink:href="#U"/><use transform="matrix(0.05,0,0,0.05,9,0)" xlink:href="#V"/><use transform="matrix(0.05,0,0,0.05,19.950000000000003,0)" xlink:href="#y"/><use transform="matrix(0.05,0,0,0.05,25.900000000000002,0)" xlink:href="#H"/><use transform="matrix(0.05,0,0,0.05,35.900000000000006,0)" xlink:href="#E"/></g><g id="n"><use transform="matrix(0.05,0,0,0.05,0,0)" xlink:href="#t"/><use transform="matrix(0.05,0,0,0.05,12,0)" xlink:href="#y"/><use transform="matrix(0.05,0,0,0.05,17.95,0)" xlink:href="#z"/><use transform="matrix(0.05,0,0,0.05,22.95,0)" xlink:href="#F"/><use transform="matrix(0.05,0,0,0.05,26.899999999999995,0)" xlink:href="#G"/><use transform="matrix(0.05,0,0,0.05,31.899999999999995,0)" xlink:href="#C"/><use transform="matrix(0.05,0,0,0.05,41.9,0)" xlink:href="#x"/><use transform="matrix(0.05,0,0,0.05,50.9,0)" xlink:href="#z"/><use transform="matrix(0.05,0,0,0.05,55.900000000000006,0)" xlink:href="#H"/><use transform="matrix(0.05,0,0,0.05,65.9,0)" xlink:href="#y"/><use transform="matrix(0.05,0,0,0.05,71.85000000000001,0)" xlink:href="#I"/></g><path d="M85-194c31 0 48 13 60 33l-1-100h32l1 261h-30c-2-10 0-23-3-31C134-8 116 4 85 4 32 4 16-35 15-94c0-66 23-100 70-100zm9 24c-40 0-46 34-46 75 0 40 6 74 45 74 42 0 51-32 51-76 0-42-9-74-50-73" id="W"/><g id="o"><use transform="matrix(0.05,0,0,0.05,0,0)" xlink:href="#t"/><use transform="matrix(0.05,0,0,0.05,12,0)" xlink:href="#W"/><use transform="matrix(0.05,0,0,0.05,22,0)" xlink:href="#W"/></g><g id="p"><use transform="matrix(0.05,0,0,0.05,0,0)" xlink:href="#v"/><use transform="matrix(0.05,0,0,0.05,12,0)" xlink:href="#w"/><use transform="matrix(0.05,0,0,0.05,22,0)" xlink:href="#x"/><use transform="matrix(0.05,0,0,0.05,31,0)" xlink:href="#y"/><use transform="matrix(0.05,0,0,0.05,36.95,0)" xlink:href="#w"/><use transform="matrix(0.05,0,0,0.05,46.95,0)" xlink:href="#z"/></g><path d="M106-169C34-169 62-67 57 0H25v-261h32l-1 103c12-21 28-36 61-36 89 0 53 116 60 194h-32v-121c2-32-8-49-39-48" id="X"/><g id="q"><use transform="matrix(0.05,0,0,0.05,0,0)" xlink:href="#t"/><use transform="matrix(0.05,0,0,0.05,12,0)" xlink:href="#J"/><use transform="matrix(0.05,0,0,0.05,22,0)" xlink:href="#z"/><use transform="matrix(0.05,0,0,0.05,27,0)" xlink:href="#X"/><use transform="matrix(0.05,0,0,0.05,37,0)" xlink:href="#w"/><use transform="matrix(0.05,0,0,0.05,47,0)" xlink:href="#D"/><use transform="matrix(0.05,0,0,0.05,57,0)" xlink:href="#z"/><use transform="matrix(0.05,0,0,0.05,62,0)" xlink:href="#F"/><use transform="matrix(0.05,0,0,0.05,65.95,0)" xlink:href="#x"/><use transform="matrix(0.05,0,0,0.05,74.95,0)" xlink:href="#C"/><use transform="matrix(0.05,0,0,0.05,84.95,0)" xlink:href="#z"/><use transform="matrix(0.05,0,0,0.05,89.95,0)" xlink:href="#w"/></g><g id="r"><use transform="matrix(0.05,0,0,0.05,0,0)" xlink:href="#M"/><use transform="matrix(0.05,0,0,0.05,12,0)" xlink:href="#J"/><use transform="matrix(0.05,0,0,0.05,22,0)" xlink:href="#Q"/><use transform="matrix(0.05,0,0,0.05,25.950000000000003,0)" xlink:href="#Q"/></g><g id="s"><use transform="matrix(0.05,0,0,0.05,0,0)" xlink:href="#N"/><use transform="matrix(0.05,0,0,0.05,5,0)" xlink:href="#K"/><use transform="matrix(0.05,0,0,0.05,19.950000000000003,0)" xlink:href="#C"/><use transform="matrix(0.05,0,0,0.05,29.950000000000003,0)" xlink:href="#E"/><use transform="matrix(0.05,0,0,0.05,39.95,0)" xlink:href="#w"/></g></defs></g></svg>